<svg xmlns="http://www.w3.org/2000/svg" viewBox="0 0 64 64">
  <rect width="64" height="64" rx="16" fill="#0f172a"/>
  <circle cx="32" cy="32" r="22" fill="#f8fafc"/>
  <path d="M32 13l8 6-3 9H27l-3-9 8-6z" fill="#0f172a"/>
  <path d="M18 27l9 1 3 9-7 6-8-5 3-11z" fill="#0f172a"/>
  <path d="M46 27l3 11-8 5-7-6 3-9 9-1z" fill="#0f172a"/>
  <path d="M27 37h10l4 8-5 6h-8l-5-6 4-8z" fill="#0f172a"/>
  <path d="M21 18a22 22 0 0 0-10 16l7-7 6-8-3-1z" fill="#dc2626"/>
  <path d="M43 18l-3 1 6 8 7 7a22 22 0 0 0-10-16z" fill="#f59e0b"/>
  <path d="M14 45a22 22 0 0 0 14 8l-5-8-8-6-1 6z" fill="#16a34a"/>
  <path d="M50 45l-1-6-8 6-5 8a22 22 0 0 0 14-8z" fill="#2563eb"/>
</svg>
